<svg xmlns="http://www.w3.org/2000/svg" fill="none" viewBox="0 0 90 44">
  <path fill="currentColor" d="M21.6 16.513a5.891 5.891 0 0 0-5.89 5.89v7.855a1.965 1.965 0 0 1-3.93 0v-7.855a5.891 5.891 0 0 0-11.78 0v13.742A7.857 7.857 0 0 0 7.855 44h11.78a7.857 7.857 0 0 0 7.855-7.855V22.4a5.891 5.891 0 0 0-5.89-5.89v.003ZM50.89.77H37.145a5.891 5.891 0 0 0 0 11.78H45a1.965 1.965 0 0 1 0 3.929h-7.84a5.906 5.906 0 1 0 0 11.812h7.843a1.965 1.965 0 0 1 0 3.928h-7.855a5.891 5.891 0 0 0 0 11.781H50.89a7.857 7.857 0 0 0 7.855-7.855V8.625A7.857 7.857 0 0 0 50.89.77Zm31.255.003h-11.78a7.857 7.857 0 0 0-7.855 7.854v27.518A7.857 7.857 0 0 0 70.365 44h11.78A7.857 7.857 0 0 0 90 36.145V8.627A7.857 7.857 0 0 0 82.145.773Zm-3.925 15.71v13.772a1.965 1.965 0 0 1-3.93 0V14.518a1.965 1.965 0 0 1 3.93 0v1.964Z"/>
</svg>